<svg width="60" height="60" viewBox="0 0 60 60" fill="none" xmlns="http://www.w3.org/2000/svg">
<path d="M30 59.9999C46.2371 59.9999 59.4 46.8371 59.4 30.5999C59.4 14.3628 46.2371 1.19995 30 1.19995C13.7628 1.19995 0.599976 14.3628 0.599976 30.5999C0.599976 46.8371 13.7628 59.9999 30 59.9999Z" fill="white"/>
<path d="M37.62 35.5201C36.42 36.8401 34.74 37.5001 33.96 37.5001C33.06 37.5001 32.58 36.9601 32.46 36.1201C32.4 35.8201 32.46 35.4601 32.52 35.1601C32.82 33.3001 33.48 32.1001 33.48 31.8001C33.48 31.6801 33.42 31.6201 33.36 31.6201C32.76 31.6201 30.72 33.7201 30.42 35.1001L30.18 36.2401C30 37.0201 29.28 37.5001 28.74 37.5001C28.5 37.5001 28.32 37.3801 28.26 37.0801C28.26 36.9601 28.26 36.8401 28.26 36.7201L28.38 36.1201C27.3 36.9601 26.1 37.5001 25.56 37.5001C24.78 37.5001 24.36 37.0801 24.24 36.4801C23.76 37.1401 23.1 37.5001 22.38 37.5001C21.48 37.5001 20.64 36.9001 20.22 36.0001C19.62 36.6601 18.9 37.3201 18.06 37.8601C16.8 38.6401 15.42 39.3001 13.8 39.3001C12.3 39.3001 10.98 38.5201 10.32 37.8601C9.23996 36.9001 8.69996 35.4001 8.51996 34.0801C7.97996 29.8801 10.56 24.3001 14.58 21.9001C15.48 21.3601 16.5 21.0601 17.46 21.0601C19.38 21.0601 20.82 22.4401 21 24.0601C21.18 25.5601 20.58 26.8201 18.96 27.6001C18.12 28.0201 17.7 28.0201 17.58 27.7801C17.52 27.6601 17.52 27.4201 17.7 27.3001C19.26 26.0401 19.26 24.9601 19.08 23.4601C18.96 22.5001 18.36 21.9001 17.64 21.9001C14.52 21.9001 10.2 28.6801 10.8 33.6001C11.04 35.5201 12.24 37.7401 14.64 37.7401C15.42 37.7401 16.32 37.5001 17.04 37.1401C18.36 36.4801 19.14 35.9401 19.86 35.0401C19.68 32.7601 21.66 29.8801 24.54 29.8801C25.8 29.8801 26.82 30.3601 26.94 31.3801C27.12 32.6401 26.04 32.8801 25.62 32.8801C25.26 32.8801 24.72 32.7601 24.66 32.4601C24.6 32.1001 25.44 32.2801 25.32 31.5001C25.26 31.0201 24.72 30.8401 24.24 30.8401C22.44 30.8401 21.42 33.3601 21.6 34.9201C21.66 35.6401 22.08 36.3601 22.68 36.3601C23.22 36.3601 24 35.5801 24.24 34.5001C24.42 33.7201 25.14 33.2401 25.68 33.2401C25.98 33.2401 26.16 33.3601 26.16 33.6601C26.16 33.7801 26.16 33.9001 26.16 34.0201C26.1 34.3201 25.86 35.4601 25.86 35.6401C25.86 35.8201 25.98 36.1201 26.34 36.1201C26.64 36.1201 27.6 35.5801 28.56 34.7401C28.86 33.2401 29.22 31.3801 29.22 31.2601C29.34 30.6601 29.58 30.0001 30.78 30.0001C31.02 30.0001 31.2 30.1201 31.26 30.4201C31.26 30.5401 31.26 30.6601 31.26 30.7801L30.96 32.4001C32.04 30.9601 33.72 29.8801 34.74 29.8801C35.16 29.8801 35.52 30.1201 35.58 30.5401C35.64 30.7801 35.52 31.2001 35.4 31.6801C35.04 32.6401 34.62 34.1401 34.38 35.4001C34.32 35.7001 34.44 36.0601 34.92 36.0601C35.34 36.0601 36.6 35.5801 37.62 34.2001C37.62 34.0201 37.62 33.8401 37.62 33.6001C37.62 32.5201 37.68 31.6801 37.92 31.0201C38.1 30.3601 38.94 29.7601 39.48 29.7601C39.78 29.7601 39.96 29.9401 39.96 30.2401C39.96 30.3601 39.96 30.4801 39.9 30.6001C39.54 31.7401 39.3 32.7601 39.3 33.7801C39.3 34.3801 39.42 35.2801 39.54 35.7601C39.54 35.8801 39.6 35.9401 39.72 35.9401C39.9 35.9401 41.1 34.8001 41.94 33.3601C41.16 32.8801 40.74 31.9801 40.74 30.9001C40.74 29.1001 41.82 28.1401 42.9 28.1401C43.74 28.1401 44.46 28.7401 44.46 29.9401C44.46 30.7201 44.16 31.5601 43.74 32.4001C43.74 32.4001 43.92 32.4001 43.98 32.4001C44.64 32.4001 45.12 32.1001 45.42 31.7401C45.54 31.6201 45.66 31.5001 45.78 31.4401C46.62 30.4201 47.88 29.7001 49.32 29.7001C50.58 29.7001 51.6 30.1801 51.72 31.2001C51.9 32.4601 50.76 32.7601 50.4 32.7601C50.04 32.7601 49.44 32.6401 49.44 32.3401C49.38 32.0401 50.22 32.1601 50.16 31.3801C50.1 30.9001 49.56 30.6601 49.08 30.6601C47.4 30.6601 46.26 32.8801 46.44 34.7401C46.5 35.4601 46.86 36.1801 47.52 36.1801C48.06 36.1801 48.84 35.4001 49.14 34.3201C49.32 33.6001 50.04 33.0601 50.58 33.0601C50.82 33.0601 51.06 33.1801 51.06 33.4801C51.06 33.6601 51 33.9601 50.76 35.1601C50.64 35.6401 50.64 36.1201 50.64 36.4201C50.76 37.1401 51.06 37.6201 51.36 37.9201C51.48 38.0401 51.54 38.1601 51.54 38.2201C51.54 38.4001 51.42 38.5801 51.18 38.5801C51.12 38.5801 51 38.5801 50.94 38.5201C49.62 37.9801 49.08 37.0801 48.96 36.3001C48.48 36.9601 47.82 37.2601 47.1 37.2601C45.96 37.2601 44.82 36.2401 44.64 34.9201C44.58 34.3801 44.64 33.7801 44.82 33.2401C44.34 33.5401 43.86 33.7201 43.38 33.7201C43.2 33.7201 43.08 33.7201 42.96 33.7201C41.82 35.3401 40.62 36.4801 39.72 37.0201C39.36 37.2001 39 37.3201 38.76 37.3201C38.58 37.3201 38.34 37.2601 38.22 37.0801C37.86 36.8401 37.68 36.2401 37.62 35.5201ZM41.7 30.1201C41.7 30.8401 42.06 31.5601 42.48 32.0401C42.66 31.5601 42.78 31.0801 42.78 30.6001C42.78 29.7001 42.42 29.2801 42.18 29.2801C41.82 29.2801 41.7 29.7601 41.7 30.1201Z" fill="#101012"/>
</svg>
