<svg width="48" height="48" viewBox="0 0 48 48" fill="none" xmlns="http://www.w3.org/2000/svg">
<g clip-path="url(#clip0_237_103)">
<mask id="mask0_237_103" style="mask-type:luminance" maskUnits="userSpaceOnUse" x="0" y="0" width="48" height="48">
<path d="M0 0H47.5V47.5H0V0Z" fill="white"/>
</mask>
<g mask="url(#mask0_237_103)">
<path d="M35 46.25V41.25C35 41.25 35 36.25 40 36.25C45 36.25 45 41.25 45 41.25V46.25H35ZM23.75 46.25V35C23.75 35 23.75 30 28.75 30C33.75 30 33.75 35 33.75 35V46.25H23.75ZM12.5 46.25V31.25C12.5 31.25 12.5 26.25 17.5 26.25C22.5 26.25 22.5 31.25 22.5 31.25V46.25H12.5ZM1.25 46.25V35C1.25 35 1.25 30 6.25 30C11.25 30 11.25 35 11.25 35V46.25H1.25Z" fill="white"/>
<path d="M21.25 31.25C21.25 29.1788 21.25 21.25 17.5 21.25C13.75 21.25 13.75 29.1788 13.75 31.25C13.75 31.7425 13.847 32.2301 14.0355 32.6851C14.2239 33.14 14.5001 33.5534 14.8483 33.9017C15.1966 34.2499 15.61 34.5261 16.0649 34.7145C16.5199 34.903 17.0075 35 17.5 35C17.9925 35 18.4801 34.903 18.9351 34.7145C19.39 34.5261 19.8034 34.2499 20.1517 33.9017C20.4999 33.5534 20.7761 33.14 20.9645 32.6851C21.153 32.2301 21.25 31.7425 21.25 31.25ZM10 35C10 32.9288 10 25 6.25 25C2.5 25 2.5 32.9288 2.5 35C2.5 35.9946 2.89509 36.9484 3.59835 37.6517C4.30161 38.3549 5.25544 38.75 6.25 38.75C7.24456 38.75 8.19839 38.3549 8.90165 37.6517C9.60491 36.9484 10 35.9946 10 35ZM32.5 35C32.5 32.9288 32.5 25 28.75 25C25 25 25 32.9288 25 35C25 35.9946 25.3951 36.9484 26.0983 37.6517C26.8016 38.3549 27.7554 38.75 28.75 38.75C29.7446 38.75 30.6984 38.3549 31.4017 37.6517C32.1049 36.9484 32.5 35.9946 32.5 35ZM43.75 41.25C43.75 39.1788 43.75 31.25 40 31.25C36.25 31.25 36.25 39.1788 36.25 41.25C36.25 42.2446 36.6451 43.1984 37.3484 43.9017C38.0516 44.6049 39.0054 45 40 45C40.9946 45 41.9484 44.6049 42.6516 43.9017C43.3549 43.1984 43.75 42.2446 43.75 41.25Z" fill="#101012"/>
<path d="M17.5 21.25V26.25H20C20 26.25 22.5 26.25 27.5 21.25L25 18.75C25 18.75 22.5 21.25 17.5 21.25Z" fill="#101012"/>
<path d="M25 18.75L35 8.75L37.5 11.25L27.5 21.25L25 18.75ZM35 8.75C35 8.75 32.5 6.25 35 3.75L37.5 1.25H46.25V7.5L42.5 11.25C40 13.75 37.5 11.25 37.5 11.25L35 8.75Z" fill="white"/>
</g>
</g>
<defs>
<clipPath id="clip0_237_103">
<rect width="47.5" height="47.5" fill="white"/>
</clipPath>
</defs>
</svg>
