<svg width="60" height="60" viewBox="0 0 60 60" fill="none" xmlns="http://www.w3.org/2000/svg">
<g clip-path="url(#clip0_237_117)">
<path d="M48.75 60H11.25C5.03625 60 0 54.9637 0 48.75V11.25C0 5.03625 5.03625 0 11.25 0H48.75C54.9637 0 60 5.03625 60 11.25V48.75C60 54.9637 54.9637 60 48.75 60Z" fill="#4285F4"/>
<path d="M48.75 60H11.25C5.03625 60 0 54.9637 0 48.75V11.25C0 5.03625 5.03625 0 11.25 0H48.75C54.9637 0 60 5.03625 60 11.25V48.75C60 54.9637 54.9637 60 48.75 60Z" fill="white"/>
<path d="M16.395 36.975C15.8869 40.0144 16.7194 42.4556 18.7256 43.8356C19.755 44.5631 21.0375 45 22.4231 45C22.4269 45 22.4306 45 22.4344 45C24.7369 45 27.075 43.8544 29.3344 42.7406C30.9469 41.9513 32.61 41.1262 34.2469 40.725C34.8525 40.5769 35.4825 40.4906 36.1481 40.395C37.4962 40.2038 38.8894 40.005 40.14 39.2831C41.5631 38.4638 42.5794 37.0838 42.885 35.4544L42.8906 35.4187C43.11 34.1756 42.8906 32.9269 42.3319 31.8319C42.7069 31.2319 42.9187 30.5287 42.9187 29.7731L42.9206 29.775C42.9169 27.9769 41.685 26.4637 40.0144 26.0194L39.9862 26.0137L43.7512 15H25.0912L28.8675 26.0475C27.2212 26.535 26.0419 28.0219 26.04 29.7825C26.04 31.0856 26.6944 32.2406 27.6937 32.9531C27.2756 33.5325 26.8275 34.0425 26.3325 34.5038L26.3269 34.5094C25.4231 35.3644 24.3562 36.06 23.1806 36.5437L23.1131 36.5681C22.0612 35.865 21.6075 34.6237 22.0181 33.51C23.6287 33.0019 24.7744 31.5319 24.7744 29.7975C24.7744 27.6563 23.0287 25.9181 20.8706 25.9106C18.705 25.9125 16.9481 27.6544 16.9462 29.8013C16.9462 30.8606 17.3831 31.8338 18.0844 32.5294C18.0244 32.6513 17.9625 32.7731 17.9006 32.9025C17.3156 34.1006 16.65 35.4544 16.395 36.975ZM41.2125 29.7731C41.2106 30.9806 40.2225 31.9612 39.0056 31.9612C37.7887 31.9575 36.8025 30.9769 36.8025 29.7694C36.8025 29.0756 37.1269 28.4587 37.635 28.0575L37.6406 28.0537L37.65 28.0444C37.7212 27.9919 37.7981 27.9394 37.8769 27.8887C37.8769 27.8887 37.8862 27.8888 37.8862 27.8794C37.9219 27.8625 37.9556 27.8363 37.9912 27.8175C38.0006 27.8175 38.0081 27.81 38.0175 27.81C38.0531 27.7931 38.0962 27.7744 38.1394 27.7575C38.1825 27.7406 38.2275 27.7238 38.2631 27.7069C38.2725 27.7069 38.28 27.6975 38.2875 27.6975C38.3231 27.6881 38.3587 27.6713 38.3925 27.6619C38.4019 27.6619 38.4169 27.6525 38.4281 27.6525C38.4712 27.6431 38.5069 27.6356 38.55 27.6281H38.5594L38.6906 27.6C38.7 27.6 38.715 27.6 38.7262 27.5906C38.7619 27.5906 38.7956 27.5813 38.8312 27.5813H38.8762C38.9212 27.5813 38.9644 27.5719 39.0169 27.5719H39.1312C39.1669 27.5719 39.195 27.5719 39.2287 27.5813H39.2456C39.315 27.5906 39.3862 27.5981 39.4556 27.6169C40.4644 27.84 41.2106 28.7194 41.2125 29.7731ZM27.5344 16.7381H41.3081L38.1469 25.9875C38.0156 26.0119 37.8844 26.0569 37.7531 26.1L34.4269 19.3687L31.0894 26.0569C30.9581 26.0138 30.8175 25.9875 30.6769 25.9612L27.5344 16.7381ZM32.6156 26.9363L32.6137 26.9344L34.4269 23.3044L36.2569 27.0131C35.715 27.5512 35.3212 28.2375 35.1637 29.0194H33.7969C33.6244 28.1869 33.2044 27.4744 32.6156 26.9363ZM27.7444 29.7656C27.7444 29.7637 27.7444 29.7619 27.7444 29.76C27.7444 28.7456 28.4456 27.8906 29.3925 27.6506L29.4075 27.6469C29.4506 27.6375 29.4862 27.6281 29.5294 27.6206H29.5537C29.5912 27.6112 29.625 27.6112 29.6606 27.6019H29.6962C29.7319 27.6019 29.7581 27.5925 29.7919 27.5925H30.1331C30.1687 27.5925 30.195 27.6019 30.2212 27.6019C30.2381 27.6019 30.2456 27.6019 30.2662 27.6112C30.3 27.6206 30.3262 27.6206 30.3619 27.6281C30.3712 27.6281 30.3787 27.6281 30.3975 27.6375L30.5194 27.6619H30.5287C30.5644 27.6713 30.6 27.6806 30.6337 27.6975C30.6431 27.6975 30.6506 27.7069 30.6694 27.7069C30.6956 27.7163 30.7312 27.7238 30.7575 27.7406C30.7669 27.7406 30.7744 27.75 30.7819 27.75C30.8175 27.7669 30.8531 27.7762 30.8869 27.7931H30.8962C30.9394 27.81 30.9769 27.8306 31.0106 27.855L31.0087 27.8531H31.0181C31.0537 27.87 31.0894 27.8963 31.1231 27.9131C31.1325 27.9131 31.1325 27.9225 31.14 27.9225C31.1756 27.9394 31.2037 27.9656 31.2375 27.9844L31.2469 27.9938C31.3519 28.0706 31.4494 28.1588 31.545 28.245L31.5544 28.2544C31.9294 28.6463 32.16 29.175 32.16 29.7581C32.16 29.76 32.16 29.7638 32.16 29.7675C32.1187 30.945 31.1475 31.8844 29.9531 31.8844C28.7587 31.8844 27.7875 30.945 27.7462 29.7713V29.7656H27.7444ZM20.79 27.585C22.0069 27.585 22.9969 28.5675 22.9969 29.7731C22.9969 30.9787 22.0069 31.9612 20.7919 31.9612C19.575 31.9612 18.5831 30.9806 18.5831 29.7731C18.5831 28.5694 19.575 27.585 20.79 27.585ZM18.1181 37.2525C18.3281 35.9831 18.915 34.7944 19.4756 33.6563C19.5112 33.5869 19.5375 33.5269 19.5731 33.4556C19.7644 33.525 19.9669 33.5775 20.1769 33.6131C19.845 35.4544 20.79 37.3556 22.6294 38.295L22.9612 38.4694L23.3194 38.34C24.8512 37.8019 26.2706 36.9244 27.5231 35.7506C28.2056 35.1187 28.8056 34.4156 29.3156 33.6487L29.3437 33.6056C29.5462 33.6394 29.7469 33.6487 29.9494 33.6487C31.7625 33.645 33.2831 32.4244 33.7331 30.7669L33.7387 30.7387H35.2087C35.6606 32.4244 37.1869 33.6469 39 33.6469H39.0019C39.7275 33.6469 40.4006 33.4463 40.98 33.1088C41.2069 33.7594 41.2781 34.4381 41.1544 35.115H41.1562C40.9444 36.2644 40.2412 37.2188 39.2737 37.7719L39.255 37.7812C38.2987 38.3287 37.1269 38.5031 35.8912 38.6756C35.0681 38.7806 34.3669 38.9081 33.6769 39.0675L33.825 39.0394C32.0044 39.4837 30.2531 40.3519 28.5544 41.1862C26.3812 42.2531 24.3319 43.2619 22.4325 43.2619C22.4231 43.2619 22.4137 43.2619 22.4025 43.2619C21.3975 43.2619 20.4675 42.9412 19.7119 42.3975C17.7956 41.0775 17.8912 38.6063 18.1181 37.2525Z" fill="#101012"/>
</g>
<defs>
<clipPath id="clip0_237_117">
<rect width="60" height="60" fill="white"/>
</clipPath>
</defs>
</svg>
