<svg width="60" height="60" viewBox="0 0 60 60" fill="none" xmlns="http://www.w3.org/2000/svg">
<g clip-path="url(#clip0_237_123)">
<path d="M31.28 60.0325C31.1414 60.0323 31.0038 60.0095 30.8725 59.965L29.375 59.45C29.1248 59.3638 28.9085 59.2005 28.7571 58.9835C28.6057 58.7665 28.527 58.5071 28.5325 58.2425C28.5325 58.2025 28.6 54.6 27.8125 52.38C25.618 50.6116 23.6655 48.5624 22.005 46.285C21.1829 45.1649 20.4347 43.9924 19.765 42.775C17.2517 38.2483 16.0452 33.1124 16.28 27.94C16.725 18.2825 20.595 9.51004 26.8925 3.87754C27.905 2.97004 28.4325 2.10754 28.6025 1.08504C28.6482 0.804475 28.7884 0.547932 28.9998 0.357892C29.2112 0.167852 29.4812 0.0557138 29.765 0.0400442C30.39 -0.0449558 30.8775 0.385044 31.04 0.947544C31.3225 1.95254 31.8425 3.04754 32.465 3.94754C32.6775 4.35254 33.2175 4.93254 33.695 5.44004C36.04 7.94004 40.9175 13.145 43.2575 23.785C45.585 37.8 39.1025 46.455 35.0325 50.375C34.135 51.25 33.4325 51.7975 33.09 52.0575C32.8661 52.3363 32.7057 52.6605 32.62 53.0075C32.3025 54.4725 32.4425 57.61 32.525 58.695C32.5395 58.9012 32.5031 59.1078 32.419 59.2966C32.3348 59.4853 32.2055 59.6505 32.0425 59.7775C31.8225 59.9426 31.555 60.032 31.28 60.0325ZM29.8075 4.40004C29.4359 4.88364 29.019 5.33067 28.5625 5.73504C22.76 10.9225 19.195 19.0575 18.7775 28.055C18.567 32.7686 19.6687 37.448 21.96 41.5725C22.5675 42.6775 23.2625 43.7675 24.0225 44.805C26.46 48.125 28.91 50.0825 29.6025 50.605C29.7812 50.7378 29.9203 50.9167 30.005 51.1225C30.12 51.395 30.2225 51.6875 30.3125 51.99C30.5025 51.4275 30.81 50.89 31.2425 50.36C31.3097 50.2774 31.387 50.2035 31.4725 50.14C31.705 49.9725 32.3875 49.4625 33.2075 48.69C37.015 44.9925 42.9325 37.0775 40.805 24.2575C38.6225 14.3525 34.23 9.66754 31.8725 7.14754C31.0775 6.30004 30.5525 5.74004 30.295 5.16504C30.1214 4.91728 29.9587 4.66204 29.8075 4.40004Z" fill="white"/>
</g>
<defs>
<clipPath id="clip0_237_123">
<rect width="60" height="60" fill="white"/>
</clipPath>
</defs>
</svg>
